# xmcd
#
# Track frame offsets: 
#        150
#        9597
#        22535
#        32462
#        43890
#        56422
#        70375
#        83710
#        97267
#        110785
#        123760
#        133532
#        143152
#        153857
#        166332
#        180717
#        193447
#        202035
#
# Disc length: 2864 seconds
#
# Revision: 0
# Processed by: cddbd v1.5.2PL0 Copyright (c) Steve Scherf et al.
# Submitted via: ExactAudioCopy v0.99pb4
#
DISCID=f60b2e12
DTITLE=Bobby Marchan - Booty Green
DYEAR=1962
DGENRE=Soul
TTITLE0=There Is Something On Your Mind, Pt. 1
TTITLE1=There Is Something On Your Mind, Pt. 2
TTITLE2=Snoopin And Accusin
TTITLE3=It's Written All Over Your Face
TTITLE4=Hurts Me To My Heart
TTITLE5=The Things I Used To Do, Pt. 1
TTITLE6=The Things I Used To Do, Pt. 2
TTITLE7=The Booty Green
TTITLE8=I Need Someone (I Need You)
TTITLE9=I Miss You So
TTITLE10=You're Still My Baby, Pt. 1
TTITLE11=The Things I Used To Do, Pt. 2
TTITLE12=This Is The Life
TTITLE13=Look At My Heart
TTITLE14=All In My Mind
TTITLE15=It's Written All Over Your Face, Pt. 1
TTITLE16=It's Written All Over Your Face, Pt. 2
TTITLE17=What You Don't Know Don't Hurt You
EXTD=
EXTT0=
EXTT1=
EXTT2=
EXTT3=
EXTT4=
EXTT5=
EXTT6=
EXTT7=
EXTT8=
EXTT9=
EXTT10=
EXTT11=
EXTT12=
EXTT13=
EXTT14=
EXTT15=
EXTT16=
EXTT17=
PLAYORDER=
